<svg width="126" height="46" viewBox="0 0 126 46" fill="none" xmlns="http://www.w3.org/2000/svg">
<path d="M62.7031 25.1951H67.1551C67.8717 18.9456 70.3371 13.055 74.2431 8.2588H64.9643V4.04324H79.1417L80.4457 7.7411C75.4204 12.1688 72.1391 18.3762 71.2304 25.1729H82.0051V0.0273438H62.7031V25.1951Z" fill="url(#paint0_linear_12088_41775)"/>
<path d="M84.4219 25.1951H88.8732C89.5899 18.9456 92.0552 13.055 95.9619 8.2588H86.6899V4.04324H100.867L102.171 7.7411C97.1465 12.1688 93.8652 18.3762 92.9565 25.1729H103.731V0.0273438H84.4219V25.1951Z" fill="url(#paint1_linear_12088_41775)"/>
<path d="M106.141 0.0221872V25.1677H110.557C111.273 18.9182 113.739 13.0276 117.646 8.23144H108.43V4.01589H122.607L123.911 7.71374C118.887 12.1415 115.605 18.3489 114.697 25.1456H125.443V0L106.141 0.0221872Z" fill="url(#paint2_linear_12088_41775)"/>
<path d="M60.2894 5.05798V0.0214844H40.9874V20.1601H26.5127V0.0214844H21.6853V5.05058C19.8603 2.51564 17.1845 0.793697 14.1943 0.229667C11.2039 -0.334359 8.11973 0.301171 5.55949 2.00897C2.99921 3.71676 1.15188 6.37072 0.387492 9.43926C-0.376897 12.5078 -0.00190078 15.7644 1.43737 18.5568C2.87665 21.3491 5.27392 23.471 8.14907 24.4975C11.0242 25.5239 14.1649 25.3792 16.9421 24.0922C19.7193 22.8052 21.9278 20.471 23.1255 17.5572C24.3232 14.6434 24.4215 11.3649 23.4007 8.37863C24.4688 10.6111 24.8759 13.1247 24.5705 15.5994C24.2649 18.0741 23.2607 20.398 21.6853 22.2753V25.2336H40.9874L42.6887 20.197L42.1216 25.2336H58.5881L60.2894 20.197H45.8147V15.1235H57.8652V10.0945H45.8147V5.05798H60.2894ZM12.0238 20.1083C10.6027 20.1053 9.21447 19.6631 8.03433 18.8373C6.85413 18.0114 5.93508 16.8391 5.39324 15.4686C4.85138 14.0981 4.71106 12.5907 4.99001 11.137C5.26895 9.68319 5.95463 8.34834 6.9604 7.30105C7.9662 6.25371 9.24693 5.54095 10.6409 5.25279C12.0348 4.96462 13.4793 5.11399 14.7918 5.68202C16.1044 6.25005 17.2261 7.21128 18.0153 8.44421C18.8045 9.67715 19.2257 11.1265 19.2257 12.6091C19.2257 13.5951 19.0393 14.5715 18.6772 15.4823C18.3151 16.3931 17.7843 17.2206 17.1154 17.9171C16.4465 18.6137 15.6524 19.1657 14.7788 19.5416C13.9051 19.9177 12.9689 20.1103 12.0238 20.1083Z" fill="#F2F2F2"/>
<path d="M22.4062 31.3494V41.2026H24.0442V31.3494H22.4062ZM29.6 33.8748C29.166 33.8748 28.774 33.9576 28.41 34.137C28.06 34.3026 27.738 34.5648 27.458 34.896V34.068H25.862V41.2026H27.458V36.9109C27.514 36.3451 27.71 35.9034 28.046 35.5998C28.34 35.3238 28.69 35.1859 29.082 35.1859C30.174 35.1859 30.72 35.7655 30.72 36.9385V41.2026H32.316V36.8004C32.316 34.8408 31.406 33.8748 29.6 33.8748ZM36.2647 31.7634L34.6687 32.412V34.068H33.3667V35.3652H34.6687V39.3948C34.6687 39.9745 34.8087 40.4022 35.0887 40.7058C35.3827 41.037 35.8447 41.2026 36.4747 41.2026H37.6927V39.9054H36.7407C36.5727 39.9054 36.4607 39.8641 36.3767 39.7813C36.2927 39.6847 36.2647 39.5604 36.2647 39.3948V35.3652H37.8747V34.068H36.2647V31.7634ZM42.149 33.8748C41.071 33.8748 40.217 34.2336 39.601 34.965C38.957 35.6826 38.649 36.5658 38.649 37.6284C38.649 38.8152 38.985 39.7399 39.657 40.416C40.287 41.0647 41.141 41.3958 42.219 41.3958C43.185 41.3958 43.983 41.1199 44.627 40.5816C45.131 40.14 45.467 39.5742 45.635 38.9118H44.039C43.843 39.312 43.633 39.6019 43.395 39.7813C43.087 40.0021 42.695 40.1124 42.205 40.1124C41.631 40.1124 41.183 39.933 40.875 39.588C40.567 39.243 40.385 38.7325 40.329 38.0701H45.747C45.747 36.7867 45.453 35.7792 44.879 35.0616C44.249 34.2612 43.339 33.8748 42.149 33.8748ZM42.191 35.1583C43.311 35.1583 43.941 35.7241 44.081 36.8833H40.357C40.455 36.3175 40.651 35.8896 40.945 35.5998C41.253 35.2962 41.659 35.1583 42.191 35.1583ZM50.4284 33.8748C49.9804 33.8748 49.6024 33.999 49.2804 34.2612C49.0144 34.4544 48.7904 34.7304 48.5944 35.0892V34.068H47.0124V41.2026H48.5944V37.4215C48.5944 36.8142 48.7764 36.3312 49.1684 35.9586C49.5044 35.6274 49.8824 35.4756 50.3024 35.4756C50.6384 35.4756 50.9744 35.517 51.3384 35.6274V34.0543C51.0864 33.93 50.7784 33.8748 50.4284 33.8748ZM55.9867 33.8748C55.5527 33.8748 55.1607 33.9576 54.7967 34.137C54.4467 34.3026 54.1247 34.5648 53.8447 34.896V34.068H52.2487V41.2026H53.8447V36.9109C53.9007 36.3451 54.0967 35.9034 54.4327 35.5998C54.7267 35.3238 55.0767 35.1859 55.4687 35.1859C56.5607 35.1859 57.1067 35.7655 57.1067 36.9385V41.2026H58.7027V36.8004C58.7027 34.8408 57.7927 33.8748 55.9867 33.8748ZM63.6735 33.8748C62.7495 33.8748 62.0215 34.0266 61.4894 34.3578C60.8594 34.7166 60.4674 35.2962 60.3134 36.0828L61.8955 36.207C61.9795 35.8344 62.1894 35.5584 62.4975 35.379C62.7635 35.2134 63.1135 35.1445 63.5615 35.1445C64.5975 35.1445 65.1154 35.5998 65.1154 36.5382V36.8142L63.5335 36.8557C62.4695 36.8833 61.6434 37.1041 61.0554 37.5181C60.4114 37.9459 60.1034 38.5668 60.1034 39.3672C60.1034 39.9606 60.3274 40.4436 60.7755 40.83C61.2094 41.2026 61.7975 41.3958 62.5535 41.3958C63.1835 41.3958 63.7295 41.2854 64.1915 41.0784C64.5975 40.8853 64.9474 40.623 65.2274 40.2642V41.2026H66.7118V36.6486C66.7118 35.7792 66.4874 35.1169 66.0394 34.6614C65.5354 34.137 64.7374 33.8748 63.6735 33.8748ZM65.1154 37.9458V38.3046C65.1154 38.8566 64.8914 39.312 64.4714 39.6708C64.0514 40.0158 63.5334 40.1952 62.9174 40.1952C62.5674 40.1952 62.2874 40.0986 62.0634 39.933C61.8395 39.7674 61.7414 39.5605 61.7414 39.312C61.7414 38.4564 62.3714 38.0148 63.6455 37.9872L65.1154 37.9458ZM70.6631 31.7634L69.0671 32.412V34.068H67.7651V35.3652H69.0671V39.3948C69.0671 39.9745 69.2071 40.4022 69.4871 40.7058C69.7811 41.037 70.2431 41.2026 70.8731 41.2026H72.0911V39.9054H71.1391C70.9711 39.9054 70.8591 39.8641 70.7751 39.7813C70.6911 39.6847 70.6631 39.5604 70.6631 39.3948V35.3652H72.2731V34.068H70.6631V31.7634ZM74.5458 31.1562C74.2378 31.1562 73.9858 31.2528 73.7758 31.446C73.5658 31.6392 73.4678 31.8876 73.4678 32.1912C73.4678 32.4948 73.5658 32.7432 73.7758 32.9502C73.9858 33.1434 74.2378 33.24 74.5458 33.24C74.8538 33.24 75.1058 33.1434 75.3158 32.9502C75.5258 32.757 75.6378 32.4948 75.6378 32.1912C75.6378 31.8876 75.5258 31.6392 75.3298 31.446C75.1198 31.2528 74.8538 31.1562 74.5458 31.1562ZM73.7478 34.068V41.2026H75.3438V34.068H73.7478ZM80.6831 33.8748C79.5771 33.8748 78.6951 34.2198 78.0371 34.9374C77.3651 35.6412 77.0431 36.5382 77.0431 37.6422C77.0431 38.7324 77.3651 39.6295 78.0231 40.3195C78.6951 41.0371 79.5771 41.3958 80.6831 41.3958C81.7751 41.3958 82.6711 41.0371 83.3431 40.3195C83.9871 39.6295 84.3231 38.7324 84.3231 37.6422C84.3231 36.5382 83.9871 35.6412 83.3291 34.9374C82.6571 34.2198 81.7751 33.8748 80.6831 33.8748ZM80.6831 35.1583C81.3411 35.1583 81.8591 35.4066 82.2231 35.931C82.5311 36.3726 82.6991 36.9522 82.6991 37.6422C82.6991 38.3184 82.5311 38.8842 82.2231 39.3396C81.8591 39.8502 81.3411 40.1124 80.6831 40.1124C80.0111 40.1124 79.5071 39.8502 79.1431 39.3396C78.8351 38.898 78.6811 38.3322 78.6811 37.6422C78.6811 36.9522 78.8351 36.3726 79.1431 35.931C79.5071 35.4066 80.0111 35.1583 80.6831 35.1583ZM89.4558 33.8748C89.0218 33.8748 88.6298 33.9576 88.2658 34.137C87.9158 34.3026 87.5938 34.5648 87.3138 34.896V34.068H85.7178V41.2026H87.3138V36.9109C87.3698 36.3451 87.5658 35.9034 87.9018 35.5998C88.1958 35.3238 88.5458 35.1859 88.9378 35.1859C90.0298 35.1859 90.5758 35.7655 90.5758 36.9385V41.2026H92.1718V36.8004C92.1718 34.8408 91.2618 33.8748 89.4558 33.8748ZM97.1425 33.8748C96.2185 33.8748 95.4905 34.0266 94.9585 34.3578C94.3285 34.7166 93.9364 35.2962 93.7824 36.0828L95.3645 36.207C95.4485 35.8344 95.6585 35.5584 95.9665 35.379C96.2325 35.2134 96.5825 35.1445 97.0305 35.1445C98.0665 35.1445 98.5845 35.5998 98.5845 36.5382V36.8142L97.0024 36.8557C95.9385 36.8833 95.1125 37.1041 94.5245 37.5181C93.8805 37.9459 93.5724 38.5668 93.5724 39.3672C93.5724 39.9606 93.7965 40.4436 94.2445 40.83C94.6785 41.2026 95.2664 41.3958 96.0225 41.3958C96.6525 41.3958 97.1985 41.2854 97.6605 41.0784C98.0665 40.8853 98.4165 40.623 98.6965 40.2642V41.2026H100.18V36.6486C100.18 35.7792 99.9565 35.1169 99.5085 34.6614C99.0045 34.137 98.2065 33.8748 97.1425 33.8748ZM98.5845 37.9458V38.3046C98.5845 38.8566 98.3605 39.312 97.9405 39.6708C97.5204 40.0158 97.0025 40.1952 96.3865 40.1952C96.0365 40.1952 95.7565 40.0986 95.5325 39.933C95.3084 39.7674 95.2104 39.5605 95.2104 39.312C95.2104 38.4564 95.8405 38.0148 97.1144 37.9872L98.5845 37.9458ZM102.004 31.1562V41.2026H103.6V31.1562H102.004Z" fill="white"/>
<path d="M17.3307 35.9453H6.66406V37.2596H17.3307V35.9453Z" fill="white"/>
<path d="M118.667 35.9453H108V37.2596H118.667V35.9453Z" fill="white"/>
<defs>
<linearGradient id="paint0_linear_12088_41775" x1="74.0873" y1="0.0273437" x2="76.3021" y2="25.1019" gradientUnits="userSpaceOnUse">
<stop stop-color="#FFA300"/>
<stop offset="1" stop-color="#FED605"/>
</linearGradient>
<linearGradient id="paint1_linear_12088_41775" x1="95.8104" y1="0.0273437" x2="98.0244" y2="25.1021" gradientUnits="userSpaceOnUse">
<stop stop-color="#FFA300"/>
<stop offset="1" stop-color="#FED605"/>
</linearGradient>
<linearGradient id="paint2_linear_12088_41775" x1="117.525" y1="-6.97049e-08" x2="119.74" y2="25.0746" gradientUnits="userSpaceOnUse">
<stop stop-color="#FFA300"/>
<stop offset="1" stop-color="#FED605"/>
</linearGradient>
</defs>
</svg>
