<svg aria-hidden="true" style="position: absolute; width: 0; height: 0; overflow: hidden;" version="1.1" xmlns="http://www.w3.org/2000/svg" xmlns:xlink="http://www.w3.org/1999/xlink">
<defs>
<symbol id="icon-tg" viewBox="0 0 41 32">
<path d="M32.549 31.205l6.242-30.002c0.161-0.774-0.6-1.419-1.337-1.134l-34.78 13.408c-0.858 0.33-0.851 1.545 0.010 1.867l8.475 3.161 3.28 10.542c0.21 0.675 1.036 0.924 1.584 0.476l4.724-3.848c0.495-0.403 1.201-0.423 1.718-0.048l8.52 6.182c0.587 0.426 1.418 0.105 1.565-0.604zM13.91 16.822l16.563-10.194c0.298-0.183 0.604 0.22 0.348 0.456l-13.669 12.697c-0.481 0.447-0.79 1.045-0.878 1.695l-0.465 3.448c-0.062 0.46-0.709 0.506-0.836 0.060l-1.791-6.288c-0.205-0.717 0.094-1.483 0.729-1.875z"></path>
</symbol>
<symbol id="icon-inst" viewBox="0 0 34 32">
<path  d="M18.029 0c-4.348 0-4.894 0.019-6.602 0.097-1.705 0.078-2.868 0.348-3.886 0.743-1.053 0.409-1.946 0.955-2.836 1.845s-1.438 1.782-1.848 2.834c-0.397 1.018-0.667 2.181-0.744 3.883-0.076 1.707-0.096 2.252-0.096 6.598s0.019 4.889 0.097 6.596c0.078 1.703 0.348 2.866 0.744 3.883 0.409 1.052 0.956 1.945 1.847 2.834s1.783 1.438 2.835 1.847c1.019 0.396 2.183 0.665 3.887 0.743 1.708 0.078 2.253 0.097 6.601 0.097s4.893-0.019 6.601-0.097c1.705-0.078 2.869-0.348 3.888-0.743 1.053-0.409 1.945-0.957 2.834-1.847s1.438-1.782 1.848-2.834c0.394-1.018 0.664-2.181 0.744-3.883 0.077-1.707 0.097-2.251 0.097-6.596s-0.020-4.891-0.097-6.597c-0.080-1.703-0.35-2.866-0.744-3.883-0.41-1.052-0.957-1.945-1.848-2.834s-1.781-1.437-2.835-1.845c-1.021-0.396-2.185-0.665-3.889-0.743-1.708-0.078-2.252-0.097-6.601-0.097h0.005zM16.593 2.883c0.426-0.001 0.902 0 1.436 0 4.275 0 4.782 0.015 6.47 0.092 1.561 0.071 2.408 0.332 2.973 0.551 0.747 0.29 1.28 0.637 1.84 1.197s0.907 1.093 1.198 1.84c0.219 0.563 0.48 1.41 0.551 2.97 0.077 1.687 0.093 2.193 0.093 6.463s-0.017 4.777-0.093 6.463c-0.071 1.56-0.332 2.407-0.551 2.97-0.29 0.747-0.638 1.278-1.198 1.838s-1.092 0.907-1.84 1.197c-0.564 0.22-1.412 0.48-2.973 0.551-1.688 0.077-2.195 0.093-6.47 0.093s-4.782-0.017-6.47-0.093c-1.561-0.072-2.408-0.333-2.973-0.552-0.747-0.29-1.281-0.637-1.841-1.197s-0.907-1.092-1.198-1.839c-0.219-0.563-0.48-1.41-0.551-2.97-0.077-1.687-0.092-2.193-0.092-6.466s0.015-4.777 0.092-6.463c0.071-1.56 0.332-2.407 0.551-2.971 0.29-0.747 0.638-1.28 1.198-1.84s1.094-0.907 1.841-1.197c0.564-0.22 1.412-0.48 2.973-0.552 1.477-0.067 2.049-0.087 5.034-0.090v0.004zM26.576 5.54c-1.061 0-1.922 0.859-1.922 1.919s0.861 1.92 1.922 1.92 1.921-0.86 1.921-1.92c0-1.060-0.861-1.919-1.921-1.919zM18.029 7.783c-4.541 0-8.222 3.679-8.222 8.217s3.682 8.215 8.222 8.215c4.541 0 8.221-3.677 8.221-8.215s-3.68-8.217-8.221-8.217zM18.029 10.667c2.947 0 5.337 2.388 5.337 5.333s-2.39 5.333-5.337 5.333c-2.948 0-5.337-2.388-5.337-5.333s2.389-5.333 5.337-5.333z"></path>
</symbol>
<symbol id="icon-vk" viewBox="0 0 57 32">
<path  d="M55.236 2.167c0.377-1.249 0-2.167-1.793-2.167h-5.928c-1.507 0-2.203 0.793-2.579 1.667 0 0-3.015 7.307-7.286 12.053-1.382 1.374-2.010 1.811-2.764 1.811-0.377 0-0.922-0.437-0.922-1.686v-11.678c0-1.499-0.437-2.167-1.694-2.167h-9.316c-0.942 0-1.509 0.696-1.509 1.355 0 1.421 2.135 1.749 2.355 5.745v8.681c0 1.903-0.346 2.248-1.099 2.248-2.010 0-6.899-7.339-9.798-15.738-0.568-1.632-1.138-2.292-2.653-2.292h-5.929c-1.694 0-2.033 0.793-2.033 1.667 0 1.561 2.010 9.305 9.358 19.547 4.899 6.994 11.801 10.786 18.082 10.786 3.769 0 4.235-0.842 4.235-2.293v-5.286c0-1.684 0.357-2.020 1.55-2.020 0.879 0 2.387 0.437 5.904 3.809 4.020 3.997 4.683 5.79 6.944 5.79h5.929c1.694 0 2.541-0.842 2.052-2.504-0.535-1.656-2.454-4.059-5-6.908-1.382-1.624-3.455-3.372-4.083-4.247-0.879-1.124-0.628-1.624 0-2.623 0 0 7.223-10.117 7.977-13.552z"></path>
</symbol>
<symbol id="icon-wapp" viewBox="0 0 32 32">
<path  d="M23.22 19.176c-0.397-0.199-2.345-1.156-2.708-1.289-0.363-0.132-0.627-0.197-0.892 0.2-0.264 0.395-1.023 1.288-1.253 1.552-0.232 0.265-0.463 0.297-0.859 0.1-0.396-0.2-1.673-0.617-3.187-1.967-1.177-1.051-1.973-2.348-2.204-2.745-0.231-0.396-0.025-0.611 0.173-0.808 0.179-0.177 0.396-0.463 0.595-0.693 0.199-0.232 0.264-0.397 0.396-0.663 0.133-0.264 0.067-0.495-0.033-0.693-0.099-0.199-0.891-2.149-1.221-2.943-0.321-0.772-0.648-0.667-0.891-0.68-0.232-0.011-0.496-0.013-0.76-0.013s-0.693 0.099-1.056 0.496c-0.364 0.396-1.387 1.355-1.387 3.305 0 1.949 1.419 3.833 1.617 4.099 0.199 0.264 2.793 4.267 6.768 5.983 0.947 0.408 1.684 0.652 2.259 0.833 0.949 0.303 1.813 0.26 2.496 0.157 0.76-0.113 2.344-0.959 2.675-1.884 0.329-0.925 0.329-1.719 0.231-1.884s-0.363-0.264-0.76-0.463h0.002zM15.991 29.047h-0.005c-2.361 0-4.678-0.634-6.709-1.837l-0.48-0.285-4.989 1.309 1.332-4.864-0.313-0.499c-1.32-2.101-2.018-4.532-2.015-7.013 0.003-7.267 5.915-13.179 13.185-13.179 3.52 0 6.829 1.373 9.317 3.864 1.227 1.222 2.2 2.675 2.862 4.276s1 3.316 0.994 5.048c-0.003 7.267-5.915 13.18-13.179 13.18zM27.207 4.651c-1.469-1.479-3.217-2.651-5.143-3.45s-3.99-1.207-6.075-1.201c-8.739 0-15.853 7.113-15.856 15.856-0.004 2.782 0.726 5.517 2.116 7.927l-2.249 8.217 8.405-2.205c2.325 1.267 4.931 1.93 7.579 1.931h0.007c8.739 0 15.853-7.113 15.856-15.857 0.006-2.084-0.4-4.148-1.197-6.073s-1.967-3.674-3.443-5.144z"></path>
</symbol>
<symbol id="icon-hr_y" viewBox="0 0 11 32">
<path fill="none" stroke="#ff8a00" style="stroke: var(--color2, #ff8a00)" stroke-linejoin="miter" stroke-linecap="square" stroke-miterlimit="4" stroke-width="3.2" d="M8 2.8l-4.8 26.4"></path>
</symbol>
<symbol id="icon-hr_b" viewBox="0 0 11 32">
<path fill="none" stroke="#001840" style="stroke: var(--color1, #001840)" stroke-linejoin="miter" stroke-linecap="square" stroke-miterlimit="4" stroke-width="3.2998" d="M8.084 2.375l-4.95 27.223"></path>
</symbol>
<symbol id="icon-18" viewBox="0 0 32 32">
<path fill="#001840" style="fill: var(--color1, #001840)" d="M2.7 15.993c0-7.427 6.021-13.447 13.447-13.447s13.447 6.021 13.447 13.447c0 7.427-6.021 13.447-13.447 13.447s-13.447-6.021-13.447-13.447zM16.147 0.351c-8.639 0-15.642 7.003-15.642 15.642s7.003 15.641 15.642 15.641c8.639 0 15.642-7.003 15.642-15.641s-7.003-15.642-15.642-15.642zM19.564 18.070c0 0.602-0.143 1.107-0.429 1.514-0.282 0.407-0.672 0.713-1.17 0.916-0.494 0.204-1.057 0.306-1.69 0.306-0.628 0-1.194-0.102-1.697-0.306-0.498-0.204-0.893-0.509-1.183-0.916s-0.436-0.912-0.436-1.514c0-0.412 0.082-0.78 0.247-1.105 0.169-0.329 0.403-0.609 0.702-0.838 0.163-0.126 0.342-0.235 0.535-0.328-0.365-0.196-0.661-0.449-0.886-0.757-0.264-0.373-0.396-0.806-0.396-1.3 0-0.581 0.132-1.068 0.396-1.462 0.269-0.394 0.637-0.693 1.105-0.897s1.001-0.306 1.599-0.306c0.607 0 1.144 0.102 1.612 0.306s0.834 0.503 1.099 0.897c0.264 0.394 0.396 0.882 0.396 1.462 0 0.494-0.132 0.927-0.396 1.3-0.22 0.311-0.513 0.565-0.882 0.762 0.436 0.208 0.784 0.491 1.044 0.85 0.286 0.394 0.429 0.867 0.429 1.417zM17.36 17.894c0-0.26-0.046-0.479-0.137-0.657-0.091-0.182-0.219-0.321-0.383-0.416s-0.358-0.143-0.579-0.143c-0.217 0-0.41 0.048-0.579 0.143-0.165 0.095-0.295 0.234-0.39 0.416-0.091 0.178-0.136 0.397-0.136 0.657 0 0.251 0.048 0.47 0.143 0.657 0.095 0.182 0.225 0.323 0.39 0.423 0.169 0.095 0.364 0.143 0.585 0.143s0.412-0.048 0.572-0.143c0.165-0.1 0.29-0.241 0.377-0.423 0.091-0.186 0.137-0.405 0.137-0.657zM17.178 13.858c0-0.225-0.035-0.418-0.104-0.579-0.069-0.165-0.171-0.29-0.305-0.377-0.134-0.091-0.303-0.136-0.507-0.136-0.195 0-0.36 0.043-0.494 0.13s-0.236 0.212-0.306 0.377c-0.069 0.16-0.104 0.355-0.104 0.585 0 0.225 0.035 0.422 0.104 0.591s0.171 0.301 0.306 0.397c0.139 0.095 0.308 0.143 0.507 0.143 0.204 0 0.37-0.048 0.5-0.143 0.134-0.095 0.234-0.227 0.299-0.397 0.069-0.169 0.104-0.366 0.104-0.591zM10.119 11.213v9.464h-2.19v-6.994l-2.158 0.63v-1.664l4.147-1.437h0.202zM26.909 17.186v-1.878h-2.21v-2.47h-2.047v2.47h-2.229v1.878h2.229v2.541h2.047v-2.541h2.21z"></path>
</symbol>

<symbol id="icon-pragmatic" viewBox="0 0 71 32">
<path fill="#e88b20" style="fill: var(--color10, #e88b20)" d="M60.645 9.747c3.69 0.168 7.224 2.021 9.372 6.032 2.933 5.477 0.439 11.66-4.46 14.369-2.215 1.226-4.765 1.71-7.275 1.379s-4.848-1.458-6.67-3.216c-4.285-4.122-4.274-11.156 0.025-15.263 2.289-2.189 5.058-3.301 9.008-3.301zM60.838 30.431c2.31-0.066 5.080-1.31 7.158-3.94 2.675-3.387 2.674-8.207 0.030-11.574-3.767-4.801-10.832-5.39-15.289-1.223-2.593 2.424-3.63 5.45-2.884 8.939 0.988 4.619 5.212 7.866 10.982 7.795l0.002 0.004z"></path>
<path fill="#e88b20" style="fill: var(--color10, #e88b20)" d="M49.452 5.184c1.91 0.080 3.379 0.947 4.512 2.464-0.439-2.415-0.826-4.822-0.606-7.292 1.628 1.897 2.722 4.103 3.796 6.347 0.033-1.863 0.734-3.372 2.194-4.505 0.086 0.046 0.080 0.094 0.056 0.145-0.892 1.917-0.927 3.905-0.424 5.921 0.073 0.292 0.040 0.361-0.264 0.38-1.718 0.097-3.391 0.584-4.893 1.424-0.272 0.153-0.359 0.113-0.469-0.169-0.639-1.627-1.612-3.012-3.006-4.084-0.288-0.222-0.596-0.42-0.895-0.629z"></path>
<path fill="#001840" style="fill: var(--color1, #001840)" d="M27.497 19.964l-0.991 2.456c-0.184 0.455-0.386 0.904-0.542 1.369-0.115 0.341-0.373 0.225-0.59 0.24-0.204 0.011-0.395 0.037-0.505-0.248-0.449-1.164-0.928-2.316-1.401-3.472-0.035-0.086-0.022-0.252-0.168-0.22s-0.070 0.178-0.070 0.274c-0.005 1.104-0.014 2.208 0 3.313 0 0.268-0.050 0.37-0.344 0.364-0.655-0.014-0.655 0-0.655-0.639 0-1.61 0.007-3.22-0.007-4.829 0-0.281 0.070-0.362 0.35-0.361 0.852 0 0.852-0.008 1.193 0.779 0.497 1.145 0.993 2.29 1.49 3.434 0.046 0.103 0.097 0.204 0.184 0.387 0.205-0.47 0.382-0.864 0.551-1.261 0.422-0.989 0.852-1.976 1.255-2.973 0.113-0.28 0.261-0.372 0.559-0.366 0.806 0.018 0.806 0.004 0.806 0.827 0 1.543-0.008 3.086 0.008 4.632 0 0.303-0.085 0.383-0.382 0.374-0.639-0.020-0.639 0-0.639-0.663 0-1.128 0-2.257 0-3.385l-0.102-0.028z"></path>
<path fill="#001840" style="fill: var(--color1, #001840)" d="M20.065 20.821c0.412 0 0.825 0.012 1.236-0.005 0.247-0.010 0.297 0.076 0.319 0.319 0.139 1.669-1.186 2.902-2.8 2.962-1.689 0.063-3.015-1.072-3.134-2.721-0.096-1.322 0.501-2.482 1.525-2.962 1.238-0.58 2.742-0.399 3.615 0.445 0.109 0.097 0.205 0.208 0.286 0.329 0.148 0.24 0.449 0.542 0.29 0.761-0.138 0.189-0.548 0.036-0.837 0.055-0.16 0.010-0.184-0.132-0.247-0.224-0.437-0.639-1.227-0.934-2.033-0.763-0.823 0.173-1.412 0.742-1.526 1.534-0.134 0.926-0.027 1.787 0.842 2.361 1.112 0.736 2.704 0.21 3.090-1.009 0.080-0.259 0.075-0.384-0.257-0.37-0.544 0.025-1.091-0.012-1.634 0.012-0.326 0.015-0.283-0.178-0.291-0.38s0-0.361 0.283-0.348c0.423 0.017 0.848 0.002 1.274 0.002z"></path>
<path fill="#001840" style="fill: var(--color1, #001840)" d="M9.369 23.98c-0.743 0.214-1.241-0.017-1.567-0.726-0.208-0.453-0.576-0.83-0.811-1.278-0.195-0.368-0.49-0.29-0.781-0.277-0.186 0.009-0.122 0.177-0.123 0.281-0.006 0.572-0.016 1.144 0 1.716 0.007 0.259-0.067 0.339-0.335 0.335-0.666-0.013-0.665 0-0.665-0.675 0-1.623 0-3.246-0.010-4.872 0-0.261 0.044-0.383 0.349-0.366 0.809 0.044 1.622-0.052 2.43 0.063 0.849 0.121 1.458 0.709 1.533 1.484 0.093 0.949-0.319 1.617-1.226 1.878-0.352 0.101-0.263 0.204-0.121 0.41 0.451 0.655 0.89 1.318 1.333 1.978 0.006 0.014-0.002 0.030-0.006 0.048zM6.082 19.893c0 0.308 0.011 0.559 0 0.813-0.012 0.199 0.041 0.299 0.26 0.291 0.359-0.012 0.719 0.016 1.077-0.011 0.656-0.051 0.976-0.43 0.951-1.081-0.018-0.464-0.252-0.776-0.711-0.89-0.496-0.123-1.038-0.16-1.493 0-0.238 0.078-0.029 0.609-0.085 0.878z"></path>
<path fill="#001840" style="fill: var(--color1, #001840)" d="M44.641 24.075c-1.536 0.011-2.594-0.762-2.96-2.102-0.39-1.425 0.16-2.888 1.372-3.551s3.475-0.486 4.231 1.301c0.14 0.331 0.074 0.408-0.275 0.406-0.386 0-0.657-0.044-0.918-0.425-0.498-0.725-1.285-0.866-2.103-0.664-0.741 0.183-1.161 0.719-1.316 1.451-0.181 0.859-0.054 1.66 0.624 2.27 0.841 0.755 2.315 0.505 2.932-0.462 0.128-0.2 0.94-0.375 1.103-0.232 0.108 0.096 0.016 0.198-0.020 0.287-0.416 1.023-1.207 1.549-2.275 1.696-0.16 0.025-0.322 0.018-0.396 0.025z"></path>
<path fill="#001840" style="fill: var(--color1, #001840)" d="M12.694 18.236c0.463-0.16 0.604 0.115 0.748 0.498 0.622 1.649 1.277 3.287 1.924 4.925 0.109 0.274 0.117 0.392-0.247 0.379-0.681-0.026-0.682-0.005-0.925-0.659-0.231-0.62-0.231-0.62-0.884-0.62-0.544 0-1.090 0.010-1.633 0-0.228-0.006-0.382 0.040-0.423 0.292-0.023 0.104-0.057 0.205-0.101 0.302-0.267 0.71-0.267 0.696-1.031 0.688-0.285 0-0.264-0.101-0.184-0.304 0.55-1.393 1.096-2.787 1.64-4.182 0.113-0.255 0.212-0.515 0.296-0.781 0.114-0.437 0.327-0.688 0.819-0.537zM12.626 19.38c-0.298 0.799-0.587 1.597-0.887 2.382-0.088 0.232 0.030 0.24 0.205 0.24 0.479-0.006 0.958-0.011 1.431 0.006 0.286 0.010 0.265-0.099 0.184-0.308-0.232-0.605-0.439-1.22-0.674-1.824-0.065-0.167-0.071-0.371-0.263-0.497h0.002z"></path>
<path fill="#001840" style="fill: var(--color1, #001840)" d="M32.149 22.759c-0.226 0-0.457 0.030-0.677-0.006-0.49-0.080-0.745 0.127-0.828 0.595-0.006 0.026-0.014 0.051-0.024 0.076-0.213 0.598-0.493 0.744-1.113 0.608-0.224-0.050-0.11-0.171-0.074-0.264 0.247-0.644 0.502-1.285 0.752-1.927 0.429-1.1 0.865-2.198 1.277-3.303 0.096-0.256 0.232-0.332 0.497-0.328 0.774 0.012 0.775 0 1.058 0.726 0.62 1.597 1.233 3.194 1.865 4.781 0.119 0.299 0.026 0.326-0.239 0.319-0.857-0.030-0.648 0.145-0.952-0.633-0.291-0.746-0.095-0.63-0.906-0.639-0.212-0.006-0.424-0.004-0.636-0.004zM32.163 19.285c-0.342 0.918-0.648 1.728-0.946 2.54-0.058 0.155 0.050 0.178 0.171 0.177 0.516 0 1.033 0 1.55 0 0.119 0 0.23-0.012 0.172-0.172-0.297-0.815-0.603-1.625-0.946-2.548v0.002z"></path>
<path fill="#001840" style="fill: var(--color1, #001840)" d="M0 21.065c0-0.878 0-1.757 0-2.635 0-0.174 0-0.315 0.239-0.305 0.81 0.032 1.622-0.058 2.429 0.059 1 0.145 1.566 0.81 1.549 1.797-0.016 0.954-0.644 1.63-1.633 1.725-0.425 0.040-0.851 0.052-1.277 0.034-0.275-0.012-0.337 0.085-0.33 0.335 0.016 0.532-0.006 1.065 0.014 1.597 0.010 0.27-0.056 0.371-0.348 0.363-0.642-0.018-0.642-0.002-0.642-0.656v-2.314zM1.756 18.936c-0.769-0.006-0.769-0.006-0.769 0.768v0.119c0 1.238 0 1.238 1.235 1.125 0.668-0.062 0.993-0.415 0.975-1.059-0.016-0.593-0.394-0.94-1.038-0.954-0.137-0.002-0.269 0-0.403 0z"></path>
<path fill="#001840" style="fill: var(--color1, #001840)" d="M37.524 21.457c0 0.744-0.014 1.488 0.007 2.231 0.009 0.29-0.087 0.352-0.358 0.347-0.644-0.011-0.644 0-0.644-0.659 0-1.368-0.006-2.736 0.005-4.104 0-0.268-0.062-0.385-0.354-0.363-0.344 0.025-0.692-0.016-1.038 0.012-0.329 0.026-0.331-0.153-0.319-0.39 0.008-0.214-0.046-0.411 0.303-0.407 1.288 0.018 2.576 0.013 3.864 0 0.342 0 0.267 0.22 0.27 0.399s0.057 0.415-0.277 0.399c-0.384-0.021-0.77 0.007-1.154-0.009-0.239-0.010-0.319 0.059-0.314 0.313 0.018 0.744 0.006 1.487 0.006 2.231l0.002-0.001z"></path>
<path fill="#001840" style="fill: var(--color1, #001840)" d="M40.78 21.096c0 0.863-0.014 1.726 0.007 2.588 0.007 0.291-0.089 0.356-0.36 0.351-0.639-0.010-0.639 0-0.639-0.658 0-1.619 0.008-3.238-0.007-4.857 0-0.313 0.080-0.443 0.399-0.392 0.106 0.014 0.213 0.014 0.319 0 0.231-0.025 0.293 0.080 0.29 0.299-0.016 0.89-0.010 1.779-0.010 2.668z"></path>
<path fill="#e88b20" style="fill: var(--color10, #e88b20)" d="M62.99 16.867c-1.322 0.010-2.452-0.417-3.243-1.526-0.594-0.834-0.55-1.775 0.080-2.358 0.215-0.202 0.481-0.34 0.77-0.399 1.633-0.339 3.059 0.026 4.178 1.312 0.497 0.573 0.759 1.254 0.446 1.99-0.299 0.704-0.981 0.878-1.671 0.974-0.186 0.015-0.373 0.017-0.559 0.007z"></path>
<path fill="#001840" style="fill: var(--color1, #001840)" d="M62.424 18.236c0.453-0.142 0.608 0.109 0.753 0.498 0.62 1.652 1.267 3.294 1.916 4.934 0.12 0.301 0.080 0.41-0.252 0.365-0.119-0.016-0.24-0.016-0.358 0-0.256 0.033-0.364-0.080-0.45-0.32-0.34-0.958-0.351-0.952-1.361-0.952-0.426 0-0.851 0.012-1.277-0.005-0.223-0.009-0.352 0.061-0.406 0.279-0.033 0.115-0.073 0.228-0.119 0.339-0.253 0.674-0.253 0.658-0.972 0.667-0.312 0-0.319-0.089-0.222-0.339 0.473-1.183 0.933-2.371 1.398-3.557 0.179-0.458 0.388-0.906 0.526-1.375 0.135-0.444 0.34-0.684 0.826-0.533zM62.391 19.288c-0.334 0.898-0.624 1.688-0.922 2.476-0.090 0.24 0.051 0.24 0.216 0.236 0.479 0 0.958-0.010 1.437 0 0.254 0.007 0.26-0.085 0.18-0.286-0.176-0.444-0.334-0.896-0.5-1.344-0.124-0.326-0.25-0.653-0.412-1.081z"></path>
<path fill="#001840" style="fill: var(--color1, #001840)" d="M51.105 21.073c0-0.878 0-1.757 0-2.635 0-0.169-0.018-0.319 0.232-0.311 0.798 0.028 1.597-0.055 2.395 0.049 1.049 0.138 1.637 0.826 1.597 1.837-0.036 0.963-0.691 1.624-1.709 1.701-0.41 0.031-0.824 0.039-1.235 0.030-0.223-0.005-0.3 0.058-0.294 0.286 0.014 0.559-0.006 1.118 0.010 1.677 0.006 0.232-0.044 0.327-0.302 0.329-0.695 0.008-0.695 0.021-0.696-0.687v-2.276h0.002zM52.861 18.936c-0.133 0.009-0.266 0.009-0.399 0-0.299-0.041-0.399 0.071-0.378 0.374 0.023 0.452 0.023 0.905 0 1.358-0.011 0.253 0.080 0.328 0.319 0.313 0.291-0.019 0.585-0.004 0.878-0.023 0.688-0.043 1.038-0.411 1.024-1.057-0.014-0.6-0.408-0.947-1.086-0.958-0.118-0.008-0.238-0.006-0.358-0.006h-0.001z"></path>
<path fill="#001840" style="fill: var(--color1, #001840)" d="M66.682 20.845c0.438-0.843 0.83-1.592 1.217-2.345 0.153-0.298 0.909-0.536 1.198-0.355 0.166 0.105 0.009 0.211-0.038 0.297-0.46 0.852-0.895 1.72-1.403 2.543-0.39 0.604-0.559 1.324-0.479 2.038 0.006 0.119 0.006 0.239 0 0.359 0 0.639-0.224 0.803-0.851 0.651-0.176-0.042-0.144-0.16-0.144-0.274 0-0.399-0.028-0.799 0.005-1.198 0.038-0.474-0.097-0.878-0.331-1.278-0.532-0.919-1.030-1.858-1.548-2.784-0.137-0.245-0.2-0.357 0.196-0.386 0.583-0.042 0.907 0.143 1.134 0.699 0.275 0.672 0.66 1.298 1.045 2.032z"></path>
<path fill="#001840" style="fill: var(--color1, #001840)" d="M56.031 21.097c0-0.865 0.014-1.73-0.008-2.594-0.007-0.3 0.080-0.418 0.374-0.376 0.092 0.012 0.186 0.012 0.279 0 0.276-0.034 0.364 0.072 0.362 0.357-0.014 1.476-0 2.955-0.013 4.428 0 0.284 0.068 0.37 0.354 0.355 0.504-0.024 1.011 0.006 1.517-0.009 0.422-0.013 0.22 0.292 0.264 0.474 0.057 0.23-0.039 0.302-0.267 0.299-0.864-0.010-1.728-0.011-2.593 0-0.239 0-0.275-0.090-0.273-0.305 0.012-0.875 0.004-1.752 0.004-2.63z"></path>
</symbol>
<symbol id="icon-dollar" viewBox="0 0 35 32">
<path d="M23.768 19.237c0-3.237-1.942-4.347-5.827-4.809-2.775-0.37-3.329-1.11-3.329-2.405s0.925-2.127 2.775-2.127c1.665 0 2.59 0.555 3.052 1.942 0.093 0.277 0.37 0.462 0.647 0.462h1.48c0.37 0 0.647-0.277 0.647-0.647v-0.093c-0.37-2.035-2.035-3.607-4.162-3.792v-2.22c0-0.37-0.277-0.647-0.74-0.74h-1.387c-0.37 0-0.647 0.277-0.74 0.74v2.127c-2.775 0.37-4.532 2.22-4.532 4.532 0 3.052 1.85 4.254 5.734 4.717 2.59 0.462 3.422 1.017 3.422 2.497s-1.295 2.497-3.052 2.497c-2.405 0-3.237-1.018-3.515-2.405-0.092-0.37-0.37-0.555-0.647-0.555h-1.572c-0.37 0-0.647 0.277-0.647 0.647v0.093c0.37 2.312 1.85 3.977 4.902 4.439v2.22c0 0.37 0.277 0.647 0.74 0.74h1.387c0.37 0 0.647-0.277 0.74-0.74v-2.22c2.775-0.463 4.624-2.405 4.624-4.902z"></path>
<path  d="M12.945 28.948c-7.214-2.589-10.913-10.636-8.231-17.757 1.387-3.884 4.439-6.844 8.231-8.231 0.37-0.185 0.555-0.462 0.555-0.925v-1.295c0-0.37-0.185-0.647-0.555-0.74-0.093 0-0.277 0-0.37 0.092-8.786 2.775-13.595 12.116-10.821 20.902 1.665 5.179 5.642 9.156 10.821 10.821 0.37 0.185 0.74 0 0.832-0.37 0.093-0.092 0.093-0.185 0.093-0.37v-1.295c0-0.277-0.277-0.647-0.555-0.832zM22.748 0.092c-0.37-0.185-0.74 0-0.832 0.37-0.093 0.093-0.093 0.185-0.093 0.37v1.295c0 0.37 0.277 0.74 0.555 0.925 7.214 2.589 10.913 10.636 8.231 17.757-1.387 3.884-4.439 6.844-8.231 8.231-0.37 0.185-0.555 0.462-0.555 0.925v1.295c0 0.37 0.185 0.647 0.555 0.74 0.093 0 0.277 0 0.37-0.092 8.786-2.775 13.595-12.116 10.821-20.902-1.665-5.272-5.734-9.249-10.821-10.913z"></path>
</symbol>
<symbol id="icon-bnb" viewBox="0 0 33 32">
<path  d="M17.020 0l3.952 4.048-9.952 9.952-3.952-3.952 9.952-10.048z"></path>
<path  d="M23.020 6l3.952 4.048-15.952 15.952-3.952-3.952 15.952-16.048z"></path>
<path  d="M5.020 12l3.952 4.048-3.952 3.952-3.952-3.952 3.952-4.048z"></path>
<path  d="M29.020 12l3.952 4.048-15.952 15.952-3.952-3.952 15.952-16.048z"></path>
</symbol>
<symbol id="icon-tether2"  viewBox="0 0 50 50" xmlns="http://www.w3.org/2000/svg">
<path d="M35.7684 24.2959C35.7684 25.0143 33.1959 25.6155 29.7474 25.7672L29.7497 25.7684C29.1756 25.7995 28.6005 25.8121 28.0255 25.8063C27.1301 25.8063 26.4967 25.7799 26.2737 25.7684C22.8184 25.6167 20.239 25.0155 20.239 24.2959C20.239 23.5763 22.8184 22.974 26.2737 22.82V25.1695C26.499 25.1868 27.1462 25.2247 28.0405 25.2247C29.1129 25.2247 29.6497 25.1787 29.7474 25.1707V22.8223C33.1959 22.9752 35.7684 23.5775 35.7684 24.2959ZM41.7342 24.9235L28.1474 37.9425C28.1089 37.9794 28.0576 38 28.0043 38C27.9509 38 27.8997 37.9794 27.8612 37.9425L14.2755 24.9235C14.2436 24.8936 14.2221 24.8542 14.2143 24.8112C14.2064 24.7681 14.2125 24.7237 14.2318 24.6844L19.2619 14.1173C19.2785 14.0817 19.305 14.0518 19.3383 14.031C19.3715 14.0102 19.4101 13.9994 19.4493 14H36.5627C36.6015 14.0002 36.6394 14.0114 36.6719 14.0324C36.7045 14.0534 36.7304 14.0832 36.7466 14.1184L41.7779 24.6844C41.7971 24.7237 41.8033 24.7681 41.7954 24.8112C41.7875 24.8542 41.7661 24.8936 41.7342 24.9235ZM36.5868 24.4591C36.5868 23.5327 33.6534 22.7579 29.7509 22.5774V20.4762H34.5626V17.2691H21.462V20.4762H26.2726V22.5786C22.362 22.7579 19.4217 23.5327 19.4217 24.4603C19.4217 25.3891 22.362 26.1615 26.2726 26.3431V33.0814H29.7497V26.3408C33.6511 26.1604 36.5868 25.3868 36.5868 24.4591Z" />
</symbol>
<symbol id="icon-tether" viewBox="0 0 60 56">
<path width="60" height="56"   d="M20.439 13.883c0 0.411-1.47 0.754-3.441 0.841l0.001 0.001c-0.328 0.018-0.657 0.025-0.985 0.022-0.512 0-0.874-0.015-1.001-0.022-1.974-0.087-3.448-0.43-3.448-0.841s1.474-0.755 3.448-0.843v1.343c0.129 0.010 0.499 0.032 1.010 0.032 0.613 0 0.92-0.026 0.975-0.031v-1.342c1.971 0.087 3.441 0.432 3.441 0.842zM23.848 14.242l-7.764 7.439c-0.022 0.021-0.051 0.033-0.082 0.033s-0.060-0.012-0.082-0.033l-7.763-7.439c-0.018-0.017-0.030-0.040-0.035-0.064s-0.001-0.050 0.010-0.072l2.874-6.038c0.009-0.020 0.025-0.037 0.044-0.049s0.041-0.018 0.063-0.018h9.779c0.022 0 0.044 0.007 0.062 0.018s0.033 0.029 0.043 0.049l2.875 6.038c0.011 0.022 0.015 0.048 0.010 0.072s-0.017 0.047-0.035 0.064zM20.907 13.977c0-0.529-1.676-0.972-3.906-1.075v-1.201h2.75v-1.833h-7.486v1.833h2.749v1.201c-2.235 0.102-3.915 0.545-3.915 1.075s1.68 0.972 3.915 1.076v3.85h1.987v-3.852c2.229-0.103 3.907-0.545 3.907-1.075z"></path>
</symbol>
<symbol id="icon-efir" viewBox="0 0 15 24">
<path d="M7.73421 17.9687L0.367188 13.6211L7.72971 24L15.1005 13.6211L7.72971 17.9687H7.73421ZM7.8437 0L0.479684 12.2224L7.8437 16.5775L15.2107 12.2269L7.8437 0Z"/>
</symbol>
<symbol id="icon-btc" viewBox="0 0 24 32">
<path d="M21.365 9.847c0.186 0.984 0.042 2.002-0.409 2.897s-1.183 1.616-2.085 2.052l-0.027 0.012c1.313 0.249 2.5 0.946 3.357 1.972l0.008 0.009c0.593 0.885 0.948 1.974 0.948 3.146 0 0.341-0.031 0.677-0.088 1.003l0.005-0.035c-0.069 0.848-0.287 1.677-0.644 2.449l0.019-0.045c-0.295 0.644-0.715 1.223-1.237 1.703l-0.004 0.004c-0.54 0.471-1.156 0.847-1.823 1.111l-0.043 0.015c-0.731 0.299-1.491 0.518-2.269 0.653l-0.068 0.011c-0.808 0.141-1.771 0.244-2.749 0.287l-0.048 0.001v4.909h-2.961v-4.826c-1.026 0-1.808-0.006-2.346-0.019v4.845h-2.961v-4.906c-0.231 0-0.577-0.003-1.039-0.009s-0.814-0.009-1.059-0.009h-3.844l0.596-3.52h2.133c0.138 0.012 0.277-0.004 0.409-0.047s0.253-0.113 0.358-0.204c0.104-0.091 0.189-0.203 0.249-0.328s0.094-0.261 0.1-0.399v-7.733h0.307c-0.091-0.013-0.183-0.020-0.275-0.020h-0.032v-5.518c-0.056-0.4-0.269-0.762-0.591-1.007s-0.728-0.351-1.129-0.297l0.008-0.001h-2.133v-3.154l4.077 0.019c0.82 0 1.442-0.006 1.865-0.019v-4.845h2.961v4.749c1.051-0.026 1.833-0.039 2.346-0.039v-4.712h2.961v4.845c1.001 0.081 1.92 0.235 2.81 0.459l-0.119-0.025c0.776 0.193 1.521 0.492 2.216 0.888l-0.043-0.023c0.652 0.367 1.187 0.873 1.576 1.483l0.011 0.017c0.406 0.662 0.647 1.412 0.703 2.186l0.001 0.016-0.001 0.001zM17.231 20.328v-0.051c0-0.432-0.107-0.837-0.295-1.195l0.007 0.013c-0.175-0.337-0.415-0.636-0.707-0.88l-0.004-0.004c-0.324-0.253-0.69-0.449-1.080-0.579l-0.025-0.008c-0.39-0.143-0.791-0.259-1.197-0.345l-0.061-0.011c-0.46-0.087-0.925-0.144-1.392-0.171l-0.031-0.001c-0.563-0.038-1.006-0.057-1.327-0.057s-0.734 0.006-1.24 0.019c-0.506 0.013-0.81 0.019-0.913 0.019v6.495c0.102 0 0.34 0.003 0.712 0.009s0.68 0.009 0.923 0.009 0.583-0.010 1.020-0.029c0.437-0.019 0.812-0.045 1.125-0.077s0.678-0.086 1.096-0.163c0.413-0.072 0.772-0.165 1.119-0.284l-0.052 0.016c0.357-0.128 0.659-0.264 0.947-0.421l-0.035 0.017c0.295-0.152 0.547-0.345 0.757-0.575l0.001-0.001c0.192-0.219 0.351-0.473 0.465-0.751l0.007-0.019c0.121-0.3 0.182-0.621 0.181-0.944v-0.035l-0.001 0.001zM15.865 11.174v-0.049c0-0.391-0.089-0.76-0.247-1.091l0.007 0.015c-0.143-0.303-0.342-0.576-0.585-0.807l-0.001-0.001c-0.266-0.23-0.572-0.408-0.903-0.527l-0.020-0.007c-0.329-0.132-0.668-0.237-1.015-0.312l-0.044-0.008c-0.379-0.073-0.763-0.124-1.148-0.152l-0.036-0.003c-0.468-0.038-0.839-0.054-1.116-0.048s-0.623 0.012-1.039 0.019c-0.416 0.006-0.669 0.009-0.76 0.009v5.903l0.664 0.009c0.379 0.006 0.676 0.006 0.893 0s0.537-0.019 0.96-0.039c0.371-0.013 0.741-0.050 1.107-0.113l-0.048 0.007c0.284-0.051 0.614-0.123 0.989-0.213 0.352-0.077 0.664-0.2 0.948-0.364l-0.016 0.008c0.253-0.155 0.493-0.33 0.717-0.525l-0.007 0.005c0.229-0.197 0.405-0.447 0.515-0.728l0.004-0.012c0.112-0.283 0.176-0.611 0.176-0.953v-0.027l0.004 0.003z"></path>
</symbol>
<symbol id="icon-logo" viewBox="0 0 163 32">
<path fill="#faa41d" style="fill: var(--color11, #faa41d)" d="M81.54 31.435h5.787c0.924-7.786 4.134-15.134 9.216-21.119h-12.061v-5.255h18.432l1.702 4.598c-6.541 5.523-10.796 13.26-11.988 21.727h14.007v-31.338h-25.095v31.386z"></path>
<path fill="#faa41d" style="fill: var(--color11, #faa41d)" d="M109.77 31.435h5.787c0.924-7.786 4.134-15.134 9.216-21.119h-12.061v-5.255h18.432l1.702 4.598c-6.541 5.523-10.796 13.26-11.988 21.727h14.006v-31.338h-25.094v31.386z"></path>
<path fill="#faa41d" style="fill: var(--color11, #faa41d)" d="M138.004 0.049v31.362h5.739c0.924-7.786 4.133-15.134 9.216-21.119h-11.989v-5.28h18.432l1.702 4.598c-6.54 5.523-10.796 13.26-11.988 21.727h13.982v-31.338l-25.095 0.049z"></path>
<path fill="#fff" style="fill: var(--color9, #fff)" d="M78.378 6.326v-6.277h-25.095v25.109h-18.821v-25.109h-6.274v6.277c-5.204-6.934-15.028-8.321-21.934-3.114s-8.316 15.036-3.113 21.946c5.204 6.91 15.028 8.321 21.934 3.114 5.496-4.112 7.66-11.338 5.35-17.81 2.845 5.693 1.97 12.53-2.237 17.323v3.698h25.095l2.213-6.277-0.73 6.277h21.398l2.213-6.277h-18.821v-6.326h15.684v-6.277h-15.66v-6.277h18.797zM15.641 25.085c-5.155 0-9.338-4.209-9.338-9.367s4.207-9.343 9.362-9.343c5.155 0 9.338 4.185 9.338 9.343 0 5.182-4.183 9.367-9.362 9.367z"></path>
</symbol>
</defs>
</svg>
